<svg width="864" height="364" viewBox="0 0 864 364" fill="none" xmlns="http://www.w3.org/2000/svg">
<path fill-rule="evenodd" clip-rule="evenodd" d="M18.8187 140V264H52.8187H86.8187V168V72H95.7617H104.705L120.848 121.25C129.726 148.338 143.86 191.425 152.256 217L167.521 263.5L243.42 263.722L319.319 263.944L316.319 261.745C305.194 253.589 297.981 243.756 295.233 233C293.14 224.806 293.742 211.688 296.547 204.406C304.118 184.745 326.428 171.245 361.819 164.909C373.482 162.821 377.895 162.642 427.696 162.245L481.073 161.82L480.598 151.66C480.226 143.715 479.604 140.41 477.744 136.5C470.887 122.08 455.08 114.601 428.747 113.32C393.511 111.605 370.205 121.158 359.583 141.669C357.35 145.981 355.845 147.832 354.819 147.527C353.994 147.283 342.326 144.584 328.891 141.529C315.455 138.475 304.257 135.772 304.007 135.521C303.046 134.56 311.894 121.198 317.648 114.924C331.969 99.305 355.389 87.903 383.463 82.882C400.101 79.906 432.42 79.173 450.361 81.366C487.16 85.863 513.428 98.49 526.138 117.792C531.77 126.345 534.473 133.735 535.779 144.155C536.351 148.716 536.819 171.186 536.819 194.089C536.819 234.278 536.889 235.819 538.828 238.284C541.535 241.725 548.033 243 562.868 243H574.819V253.5V264H603.819H632.819V168V72H641.756H650.692L662.662 108.25C672.878 139.188 706.22 240.985 711.711 258L713.485 263.5L779.152 263.757L844.819 264.014V140.007V16H811.319H777.819V112.038V208.075L768.622 207.788L759.425 207.5L753.579 189.5C750.364 179.6 740.055 148.1 730.671 119.5C721.287 90.9 709.808 55.913 705.162 41.75L696.715 16H464.267H231.819V112.038V208.075L222.619 207.788L213.418 207.5L205.067 182C200.473 167.975 188.601 131.75 178.684 101.5C168.767 71.25 158.411 39.638 155.67 31.25L150.687 16H84.7527H18.8187V140ZM385.358 194.112C366.892 196.803 353.301 204.838 351.435 214.169C348.202 230.334 359.38 241.912 382.709 246.565C394.497 248.916 423.937 248.148 434.898 245.205C461.071 238.176 476.163 224.818 479.73 205.526C480.329 202.285 480.819 198.14 480.819 196.316V193L436.069 193.122C411.456 193.189 388.637 193.635 385.358 194.112ZM223.819 286.941C223.819 295.24 223.411 301.134 222.81 301.506C222.255 301.849 218.7 300.578 214.911 298.682C195.955 289.199 161.522 292.239 147.835 304.605C142.214 309.683 140.496 313.355 140.4 320.5C140.255 331.27 147.165 339.11 161.13 344.018C178.897 350.263 206.876 348.792 217.762 341.041C222.09 337.959 223.647 338.385 224.009 342.75L224.319 346.5H234.319H244.319L244.581 309.75L244.844 273H234.331H223.819V286.941ZM496.819 310.035V347.07L507.069 346.785L517.319 346.5L517.819 330.5C518.189 318.648 518.708 313.902 519.819 312.193C525.758 303.059 550.442 299.982 564.45 306.629C569.91 309.22 570.819 312.69 570.819 330.936V347.07L581.069 346.785L591.319 346.5L591.623 331C591.802 321.881 591.482 313.975 590.847 311.795C587.538 300.453 573.263 294.038 551.319 294.032C539.882 294.029 530.219 295.99 524.154 299.544C521.849 300.895 519.48 302 518.891 302C518.178 302 517.819 297.149 517.819 287.5V273H507.319H496.819V310.035ZM699.819 287.5C699.819 303.316 699.702 303.581 694.319 299.979C678.331 289.281 638.99 291.79 624.025 304.462C614.529 312.504 614.27 327.474 623.477 336.19C636.838 348.839 674.744 352.006 692.545 341.96C699.032 338.298 700.819 338.624 700.819 343.469V347H710.819H720.819V310V273H710.319H699.819V287.5ZM52.0117 294.001C32.3817 296.772 18.5517 304.849 15.7737 315.166C10.3387 335.349 34.0317 349.225 71.3187 347.696C101.548 346.456 118.819 336.568 118.819 320.5C118.819 314.29 116.912 310.211 111.892 305.68C103.7 298.288 89.6917 294.141 70.8187 293.521C63.9437 293.295 55.4807 293.511 52.0117 294.001ZM306.207 294.051C283.516 297.012 270.612 306.563 270.492 320.488C270.391 332.259 278.606 340.07 296.496 345.216C303.319 347.179 306.557 347.46 321.819 347.415C337.785 347.368 339.985 347.142 346.917 344.836C355.575 341.956 366.796 335.095 364.661 333.985C363.923 333.602 360.083 332.468 356.129 331.467L348.938 329.645L344.931 332.423C338.522 336.864 334.265 337.908 322.385 337.956C308.435 338.012 301.04 336.082 295.682 330.985C288.17 323.838 287.135 324.056 330.069 323.762L368.319 323.5L368.179 318.215C368.078 314.411 367.334 311.866 365.524 309.13C357.636 297.21 331.98 290.688 306.207 294.051ZM777.98 294.008C767.071 295.54 757.748 299.256 752.069 304.336C750.832 305.443 749.819 306.849 749.819 307.461C749.819 308.084 753.787 309.236 758.84 310.079L767.86 311.585L770.09 309.157C773.599 305.335 780.33 302.844 788.697 302.272C803.444 301.264 814.277 305.659 813.622 312.384L813.319 315.5L789.319 316.159C762.658 316.891 761.368 317.061 753.708 320.856C746.805 324.276 744.03 329.079 745.821 334.505C747.294 338.968 751.582 342.218 759.819 345.115C765.547 347.129 768.22 347.401 782.319 347.403C799.499 347.406 803.201 346.64 811.048 341.461C815.666 338.412 816.228 338.407 817.592 341.4C819.208 344.948 824.8 346.377 837.319 346.443L848.319 346.5V342V337.5L841.819 337L835.319 336.5L834.819 322.421C834.342 308.981 834.194 308.179 831.576 304.747C828.469 300.674 821.001 296.809 812.819 295.039C805.562 293.47 785.947 292.889 777.98 294.008ZM388.819 299.5V304H417.319C432.994 304 445.815 304.337 445.81 304.75C445.806 305.163 432.512 311.779 416.269 319.453L386.737 333.406L387.028 339.953L387.319 346.5H428.819H470.319V342V337.5L439.819 337L409.319 336.5L417.819 332.317C422.494 330.016 435.769 323.672 447.319 318.22L468.319 308.306L468.615 301.653L468.91 295H428.865H388.819V299.5ZM81.3007 304.537C92.3677 307.42 97.8077 312.712 97.8147 320.602C97.8207 326.497 94.5157 330.902 87.4327 334.441C82.2307 337.04 80.2527 337.431 70.4137 337.808C52.8367 338.481 41.2077 334.555 37.4747 326.688C32.8607 316.965 38.9317 308.093 52.7477 304.367C59.2277 302.62 74.2847 302.71 81.3007 304.537ZM207.359 304.544C214.952 306.511 220.06 309.882 222.163 314.312C226.082 322.572 222.97 329.631 213.287 334.442C207.883 337.128 206.176 337.447 195.223 337.819C172.77 338.584 161.652 332.826 161.652 320.434C161.652 312.588 166.805 307.456 177.698 304.453C184.27 302.641 200.202 302.69 207.359 304.544ZM339.064 306.216C342.716 307.912 345.235 309.818 345.977 311.447C346.619 312.856 346.913 314.239 346.632 314.521C346.35 314.802 333.836 314.913 318.823 314.766L291.526 314.5L294.292 311.214C299.715 304.77 305.841 303.014 321.819 303.324C331.903 303.52 334.026 303.876 339.064 306.216ZM688.576 305.945C691.468 307.214 695.18 309.786 696.826 311.661C699.364 314.551 699.819 315.895 699.819 320.5C699.819 325.105 699.364 326.449 696.826 329.339C695.18 331.214 691.468 333.817 688.576 335.124C683.818 337.274 681.943 337.5 668.819 337.5C654.708 337.5 654.158 337.42 648.319 334.5C641.22 330.95 637.819 326.514 637.819 320.802C637.819 313.121 642.341 308.266 652.669 304.857C661.073 302.083 681.167 302.692 688.576 305.945ZM813.819 325.55C813.819 334.013 799.961 339.852 782.464 338.761C770.54 338.017 764.127 334.029 766.806 329.024C768.758 325.376 775.91 324.145 795.569 324.07C811.414 324.009 813.819 324.204 813.819 325.55Z" fill="black"/>
</svg>
